<svg width="75" height="80" viewBox="0 0 75 80" fill="none" xmlns="http://www.w3.org/2000/svg">
<rect width="75" height="80" rx="10" fill="#DCE6F7"/>
<path d="M37.5 35.0334V61.8334M37.5 35.0334C37.5 28.7794 37.5 25.6525 36.2828 23.2638C35.2122 21.1627 33.504 19.4544 31.4029 18.3838C29.0142 17.1667 25.8873 17.1667 19.6333 17.1667H16.8417C15.2782 17.1667 14.4964 17.1667 13.8993 17.471C13.374 17.7386 12.9469 18.1657 12.6793 18.691C12.375 19.2881 12.375 20.0699 12.375 21.6334V51.7834C12.375 53.347 12.375 54.1286 12.6793 54.7258C12.9469 55.2512 13.374 55.678 13.8993 55.9457C14.4964 56.25 15.2782 56.25 16.8417 56.25H25.0678C26.5758 56.25 27.3298 56.25 28.059 56.3801C28.7061 56.4954 29.3374 56.6864 29.9399 56.9496C30.6187 57.2458 31.246 57.664 32.5007 58.5007L37.5 61.8334M37.5 35.0334C37.5 28.7794 37.5 25.6525 38.7172 23.2638C39.7878 21.1627 41.496 19.4544 43.597 18.3838C45.9858 17.1667 49.1128 17.1667 55.3667 17.1667H58.1583C59.7219 17.1667 60.5036 17.1667 61.1008 17.471C61.6261 17.7386 62.053 18.1657 62.3207 18.691C62.625 19.2881 62.625 20.0699 62.625 21.6334V51.7834C62.625 53.347 62.625 54.1286 62.3207 54.7258C62.053 55.2512 61.6261 55.678 61.1008 55.9457C60.5036 56.25 59.7219 56.25 58.1583 56.25H49.9321C48.4241 56.25 47.67 56.25 46.9411 56.3801C46.2938 56.4954 45.6626 56.6864 45.0601 56.9496C44.3815 57.2458 43.7539 57.664 42.4993 58.5007L37.5 61.8334" stroke="url(#paint0_linear_86_2)" stroke-width="6" stroke-linecap="round" stroke-linejoin="round"/>
<defs>
<linearGradient id="paint0_linear_86_2" x1="37.5" y1="17.1667" x2="37.5" y2="61.8334" gradientUnits="userSpaceOnUse">
<stop stop-color="#0968E5"/>
<stop offset="1" stop-color="#091970"/>
</linearGradient>
</defs>
</svg>
