<svg width="75" height="80" viewBox="0 0 75 80" fill="none" xmlns="http://www.w3.org/2000/svg">
<rect width="75" height="80" rx="10" fill="#DCE6F7"/>
<path d="M50.8261 52.9348H50.8511M51.8261 45.4348H53.3261C55.6559 45.4348 56.8206 45.4348 57.7396 45.8153C58.9646 46.3228 59.9381 47.2963 60.4456 48.5213C60.8261 49.4403 60.8261 50.605 60.8261 52.9348C60.8261 55.2645 60.8261 56.4293 60.4456 57.3483C59.9381 58.5733 58.9646 59.5468 57.7396 60.0543C56.8206 60.4348 55.6559 60.4348 53.3261 60.4348H23.3261C20.9964 60.4348 19.8316 60.4348 18.9127 60.0543C17.6876 59.5468 16.7142 58.5733 16.2067 57.3483C15.8261 56.4293 15.8261 55.2645 15.8261 52.9348C15.8261 50.605 15.8261 49.4403 16.2067 48.5213C16.7142 47.2963 17.6876 46.3228 18.9127 45.8153C19.8316 45.4348 20.9964 45.4348 23.3261 45.4348H24.8261M38.3261 47.9348V20.4348M38.3261 47.9348L30.8261 40.4348M38.3261 47.9348L45.8261 40.4348" stroke="url(#paint0_linear_94_5)" stroke-width="5" stroke-linecap="round" stroke-linejoin="round"/>
<defs>
<linearGradient id="paint0_linear_94_5" x1="38.3261" y1="20.4348" x2="38.3261" y2="60.4348" gradientUnits="userSpaceOnUse">
<stop stop-color="#0968E5"/>
<stop offset="1" stop-color="#091970"/>
</linearGradient>
</defs>
</svg>
