<svg width="75" height="80" viewBox="0 0 75 80" fill="none" xmlns="http://www.w3.org/2000/svg">
<rect width="75" height="80" rx="10" fill="#DCE6F7"/>
<path d="M35.2083 18.875C35.2083 18.2672 35.4498 17.6843 35.8795 17.2545C36.3093 16.8248 36.8922 16.5833 37.5 16.5833C38.1078 16.5833 38.6907 16.8248 39.1205 17.2545C39.5502 17.6843 39.7917 18.2672 39.7917 18.875H44.375C44.375 17.0516 43.6507 15.303 42.3614 14.0136C41.072 12.7243 39.3234 12 37.5 12C35.6766 12 33.928 12.7243 32.6386 14.0136C31.3493 15.303 30.625 17.0516 30.625 18.875H35.2083Z" fill="url(#paint0_linear_94_4)"/>
<path fill-rule="evenodd" clip-rule="evenodd" d="M46.6667 18.875H52.625C54.0837 18.875 55.4826 19.4545 56.5141 20.4859C57.5455 21.5174 58.125 22.9163 58.125 24.375V59.2083C58.125 60.667 57.5455 62.066 56.5141 63.0974C55.4826 64.1289 54.0837 64.7083 52.625 64.7083H22.375C21.6527 64.7083 20.9375 64.5661 20.2702 64.2897C19.603 64.0133 18.9966 63.6081 18.4859 63.0974C17.4545 62.066 16.875 60.667 16.875 59.2083V24.375C16.875 23.6527 17.0173 22.9375 17.2937 22.2702C17.5701 21.603 17.9752 20.9966 18.4859 20.4859C19.5174 19.4545 20.9163 18.875 22.375 18.875H28.3333V21.625C28.3333 22.1112 28.5265 22.5775 28.8703 22.9214C29.2141 23.2652 29.6804 23.4583 30.1667 23.4583H44.8333C45.3196 23.4583 45.7859 23.2652 46.1297 22.9214C46.4735 22.5775 46.6667 22.1112 46.6667 21.625V18.875ZM26.0417 34.9167C25.4339 34.9167 24.851 35.1581 24.4212 35.5879C23.9914 36.0177 23.75 36.6005 23.75 37.2083C23.75 37.8161 23.9914 38.399 24.4212 38.8288C24.851 39.2586 25.4339 39.5 26.0417 39.5H48.9583C49.5661 39.5 50.149 39.2586 50.5788 38.8288C51.0086 38.399 51.25 37.8161 51.25 37.2083C51.25 36.6005 51.0086 36.0177 50.5788 35.5879C50.149 35.1581 49.5661 34.9167 48.9583 34.9167H26.0417ZM26.0417 41.7917C25.4339 41.7917 24.851 42.0331 24.4212 42.4629C23.9914 42.8927 23.75 43.4755 23.75 44.0833C23.75 44.6911 23.9914 45.274 24.4212 45.7038C24.851 46.1336 25.4339 46.375 26.0417 46.375H48.9583C49.5661 46.375 50.149 46.1336 50.5788 45.7038C51.0086 45.274 51.25 44.6911 51.25 44.0833C51.25 43.4755 51.0086 42.8927 50.5788 42.4629C50.149 42.0331 49.5661 41.7917 48.9583 41.7917H26.0417ZM26.0417 48.6667C25.4339 48.6667 24.851 48.9081 24.4212 49.3379C23.9914 49.7676 23.75 50.3505 23.75 50.9583C23.75 51.5661 23.9914 52.149 24.4212 52.5788C24.851 53.0086 25.4339 53.25 26.0417 53.25H39.7917C40.3995 53.25 40.9823 53.0086 41.4121 52.5788C41.8419 52.149 42.0833 51.5661 42.0833 50.9583C42.0833 50.3505 41.8419 49.7676 41.4121 49.3379C40.9823 48.9081 40.3995 48.6667 39.7917 48.6667H26.0417Z" fill="url(#paint1_linear_94_4)"/>
<defs>
<linearGradient id="paint0_linear_94_4" x1="37.5" y1="12" x2="37.5" y2="18.875" gradientUnits="userSpaceOnUse">
<stop stop-color="#0968E5"/>
<stop offset="1" stop-color="#091970"/>
</linearGradient>
<linearGradient id="paint1_linear_94_4" x1="37.5" y1="18.875" x2="37.5" y2="64.7083" gradientUnits="userSpaceOnUse">
<stop stop-color="#0968E5"/>
<stop offset="1" stop-color="#091970"/>
</linearGradient>
</defs>
</svg>
