<svg width="75" height="80" viewBox="0 0 75 80" fill="none" xmlns="http://www.w3.org/2000/svg">
<rect width="75" height="80" rx="10" fill="#DCE6F7"/>
<path d="M65.8295 49.3165L62.5745 35.474C60.9258 29.3215 55.3506 25.0437 48.9807 25.0437H27.0192C20.6493 25.0437 15.0741 29.3214 13.4255 35.474L10.1705 49.3165C9.33726 53.2872 11.6295 57.2488 15.489 58.5041L15.6793 58.5652C19.2512 59.728 23.1483 58.2294 25.0231 54.9743L27.8552 50.7864C28.5664 49.5518 29.8828 48.7903 31.306 48.7903H44.6942C46.1173 48.7903 47.4338 49.5518 48.1448 50.7864L50.977 54.9743C52.8519 58.2294 56.7497 59.728 60.3218 58.5652L60.5112 58.5041C64.3703 57.2488 66.6628 53.2872 65.8295 49.3165ZM30.8956 40.0401H26.3359V44.6006H22.3661V40.0401H17.8064V36.0721H22.3661V31.5133H26.3359V36.0721H30.8956V40.0401ZM50.9858 30.5633C52.3668 30.5633 53.4847 31.6812 53.4847 33.0623C53.4847 34.4415 52.3668 35.5595 50.9858 35.5595C49.6066 35.5595 48.4887 34.4415 48.4887 33.0623C48.4887 31.6811 49.6066 30.5633 50.9858 30.5633ZM45.9897 40.5564C44.6105 40.5564 43.4917 39.4375 43.4917 38.0565C43.4917 36.6781 44.6105 35.5593 45.9897 35.5593C47.3698 35.5593 48.4877 36.6781 48.4877 38.0565C48.4878 39.4376 47.3699 40.5564 45.9897 40.5564ZM50.9858 45.5515C49.6066 45.5515 48.4887 44.4336 48.4887 43.0544C48.4887 41.6733 49.6066 40.5554 50.9858 40.5554C52.3668 40.5554 53.4847 41.6733 53.4847 43.0544C53.4847 44.4336 52.3668 45.5515 50.9858 45.5515ZM55.9819 40.5564C54.6027 40.5564 53.4846 39.4375 53.4846 38.0565C53.4846 36.6781 54.6027 35.5593 55.9819 35.5593C57.362 35.5593 58.4808 36.6781 58.4808 38.0565C58.4808 39.4376 57.362 40.5564 55.9819 40.5564Z" fill="url(#paint0_linear_94_6)"/>
<defs>
<linearGradient id="paint0_linear_94_6" x1="38" y1="25.0437" x2="38" y2="58.9562" gradientUnits="userSpaceOnUse">
<stop stop-color="#0968E5"/>
<stop offset="1" stop-color="#091970"/>
</linearGradient>
</defs>
</svg>
