<svg width="75" height="80" viewBox="0 0 75 80" fill="none" xmlns="http://www.w3.org/2000/svg">
<rect width="75" height="80" rx="10" fill="#DCE6F7"/>
<g clip-path="url(#clip0_94_3)">
<mask id="path-2-inside-1_94_3" fill="white">
<path d="M41.9833 54.825C41.4083 55.2582 40.7969 55.7143 40.2774 56.1667H44.6666C45.1749 56.1667 45.6625 56.3686 46.0219 56.728C46.3813 57.0875 46.5833 57.575 46.5833 58.0833C46.5833 58.5917 46.3813 59.0792 46.0219 59.4386C45.6625 59.7981 45.1749 60 44.6666 60H36.9999C36.4916 60 36.0041 59.7981 35.6447 59.4386C35.2852 59.0792 35.0833 58.5917 35.0833 58.0833C35.0833 55.2083 37.527 53.376 39.6833 51.7583C41.1208 50.6812 42.7499 49.4583 42.7499 48.5C42.7499 47.9917 42.548 47.5041 42.1886 47.1447C41.8291 46.7853 41.3416 46.5833 40.8333 46.5833C40.3249 46.5833 39.8374 46.7853 39.478 47.1447C39.1185 47.5041 38.9166 47.9917 38.9166 48.5C38.9166 49.0083 38.7147 49.4958 38.3552 49.8553C37.9958 50.2147 37.5083 50.4167 36.9999 50.4167C36.4916 50.4167 36.0041 50.2147 35.6447 49.8553C35.2852 49.4958 35.0833 49.0083 35.0833 48.5C35.0833 46.975 35.6891 45.5125 36.7674 44.4341C37.8457 43.3558 39.3083 42.75 40.8333 42.75C42.3583 42.75 43.8208 43.3558 44.8991 44.4341C45.9775 45.5125 46.5833 46.975 46.5833 48.5C46.5833 51.375 44.1395 53.2073 41.9833 54.825ZM58.0833 42.75C57.5749 42.75 57.0874 42.9519 56.728 43.3114C56.3685 43.6708 56.1666 44.1583 56.1666 44.6667V50.4167H54.2499C53.7416 50.4167 53.2541 50.2147 52.8947 49.8553C52.5352 49.4958 52.3333 49.0083 52.3333 48.5V44.6667C52.3333 44.1583 52.1313 43.6708 51.7719 43.3114C51.4125 42.9519 50.9249 42.75 50.4166 42.75C49.9083 42.75 49.4208 42.9519 49.0613 43.3114C48.7019 43.6708 48.4999 44.1583 48.4999 44.6667V48.5C48.4999 50.025 49.1057 51.4875 50.1841 52.5659C51.2624 53.6442 52.725 54.25 54.2499 54.25H56.1666V58.0833C56.1666 58.5917 56.3685 59.0792 56.728 59.4386C57.0874 59.7981 57.5749 60 58.0833 60C58.5916 60 59.0791 59.7981 59.4386 59.4386C59.798 59.0792 59.9999 58.5917 59.9999 58.0833V44.6667C59.9999 44.1583 59.798 43.6708 59.4386 43.3114C59.0791 42.9519 58.5916 42.75 58.0833 42.75ZM38.9166 37V27.4167C38.9166 26.9083 38.7147 26.4208 38.3552 26.0614C37.9958 25.7019 37.5083 25.5 36.9999 25.5C36.4916 25.5 36.0041 25.7019 35.6447 26.0614C35.2852 26.4208 35.0833 26.9083 35.0833 27.4167V35.0833H29.3333C28.8249 35.0833 28.3374 35.2853 27.978 35.6447C27.6185 36.0041 27.4166 36.4917 27.4166 37C27.4166 37.5083 27.6185 37.9958 27.978 38.3553C28.3374 38.7147 28.8249 38.9167 29.3333 38.9167H36.9999C37.5083 38.9167 37.9958 38.7147 38.3552 38.3553C38.7147 37.9958 38.9166 37.5083 38.9166 37ZM58.0833 17.8333C57.5749 17.8333 57.0874 18.0353 56.728 18.3947C56.3685 18.7541 56.1666 19.2417 56.1666 19.75V24.3002C54.1696 21.2863 51.4902 18.7858 48.3458 17.0013C45.2015 15.2169 41.6807 14.1988 38.0693 14.0297C34.4578 13.8607 30.8573 14.5454 27.56 16.0283C24.2627 17.5112 21.3615 19.7505 19.0916 22.5646C16.8218 25.3787 15.2473 28.6882 14.4959 32.2247C13.7446 35.7612 13.8375 39.425 14.7672 42.9189C15.6969 46.4127 17.4371 49.6382 19.8467 52.3336C22.2563 55.0289 25.2674 57.1183 28.6356 58.4322C28.8582 58.518 29.0947 58.5622 29.3333 58.5625C29.7806 58.5632 30.214 58.4074 30.5585 58.1222C30.903 57.837 31.137 57.4402 31.2198 57.0007C31.3026 56.5612 31.2291 56.1065 31.012 55.7155C30.7948 55.3244 30.4478 55.0216 30.0309 54.8595C27.1713 53.7537 24.6187 51.9781 22.5873 49.6816C20.556 47.3852 19.1052 44.6349 18.3567 41.6617C17.6083 38.6885 17.584 35.5791 18.2859 32.5946C18.9879 29.6101 20.3956 26.8375 22.3908 24.5096C24.3861 22.1817 26.9107 20.3664 29.7527 19.2161C32.5947 18.0659 35.6712 17.6142 38.7239 17.899C41.7766 18.1837 44.7164 19.1967 47.2966 20.8528C49.8768 22.5089 52.0221 24.7599 53.5523 27.4167H48.4999C47.9916 27.4167 47.5041 27.6186 47.1447 27.978C46.7852 28.3375 46.5833 28.825 46.5833 29.3333C46.5833 29.8417 46.7852 30.3292 47.1447 30.6886C47.5041 31.0481 47.9916 31.25 48.4999 31.25H54.2499C55.7749 31.25 57.2375 30.6442 58.3158 29.5659C59.3941 28.4875 59.9999 27.025 59.9999 25.5V19.75C59.9999 19.2417 59.798 18.7541 59.4386 18.3947C59.0791 18.0353 58.5916 17.8333 58.0833 17.8333Z"/>
</mask>
<path d="M41.9833 54.825C41.4083 55.2582 40.7969 55.7143 40.2774 56.1667H44.6666C45.1749 56.1667 45.6625 56.3686 46.0219 56.728C46.3813 57.0875 46.5833 57.575 46.5833 58.0833C46.5833 58.5917 46.3813 59.0792 46.0219 59.4386C45.6625 59.7981 45.1749 60 44.6666 60H36.9999C36.4916 60 36.0041 59.7981 35.6447 59.4386C35.2852 59.0792 35.0833 58.5917 35.0833 58.0833C35.0833 55.2083 37.527 53.376 39.6833 51.7583C41.1208 50.6812 42.7499 49.4583 42.7499 48.5C42.7499 47.9917 42.548 47.5041 42.1886 47.1447C41.8291 46.7853 41.3416 46.5833 40.8333 46.5833C40.3249 46.5833 39.8374 46.7853 39.478 47.1447C39.1185 47.5041 38.9166 47.9917 38.9166 48.5C38.9166 49.0083 38.7147 49.4958 38.3552 49.8553C37.9958 50.2147 37.5083 50.4167 36.9999 50.4167C36.4916 50.4167 36.0041 50.2147 35.6447 49.8553C35.2852 49.4958 35.0833 49.0083 35.0833 48.5C35.0833 46.975 35.6891 45.5125 36.7674 44.4341C37.8457 43.3558 39.3083 42.75 40.8333 42.75C42.3583 42.75 43.8208 43.3558 44.8991 44.4341C45.9775 45.5125 46.5833 46.975 46.5833 48.5C46.5833 51.375 44.1395 53.2073 41.9833 54.825ZM58.0833 42.75C57.5749 42.75 57.0874 42.9519 56.728 43.3114C56.3685 43.6708 56.1666 44.1583 56.1666 44.6667V50.4167H54.2499C53.7416 50.4167 53.2541 50.2147 52.8947 49.8553C52.5352 49.4958 52.3333 49.0083 52.3333 48.5V44.6667C52.3333 44.1583 52.1313 43.6708 51.7719 43.3114C51.4125 42.9519 50.9249 42.75 50.4166 42.75C49.9083 42.75 49.4208 42.9519 49.0613 43.3114C48.7019 43.6708 48.4999 44.1583 48.4999 44.6667V48.5C48.4999 50.025 49.1057 51.4875 50.1841 52.5659C51.2624 53.6442 52.725 54.25 54.2499 54.25H56.1666V58.0833C56.1666 58.5917 56.3685 59.0792 56.728 59.4386C57.0874 59.7981 57.5749 60 58.0833 60C58.5916 60 59.0791 59.7981 59.4386 59.4386C59.798 59.0792 59.9999 58.5917 59.9999 58.0833V44.6667C59.9999 44.1583 59.798 43.6708 59.4386 43.3114C59.0791 42.9519 58.5916 42.75 58.0833 42.75ZM38.9166 37V27.4167C38.9166 26.9083 38.7147 26.4208 38.3552 26.0614C37.9958 25.7019 37.5083 25.5 36.9999 25.5C36.4916 25.5 36.0041 25.7019 35.6447 26.0614C35.2852 26.4208 35.0833 26.9083 35.0833 27.4167V35.0833H29.3333C28.8249 35.0833 28.3374 35.2853 27.978 35.6447C27.6185 36.0041 27.4166 36.4917 27.4166 37C27.4166 37.5083 27.6185 37.9958 27.978 38.3553C28.3374 38.7147 28.8249 38.9167 29.3333 38.9167H36.9999C37.5083 38.9167 37.9958 38.7147 38.3552 38.3553C38.7147 37.9958 38.9166 37.5083 38.9166 37ZM58.0833 17.8333C57.5749 17.8333 57.0874 18.0353 56.728 18.3947C56.3685 18.7541 56.1666 19.2417 56.1666 19.75V24.3002C54.1696 21.2863 51.4902 18.7858 48.3458 17.0013C45.2015 15.2169 41.6807 14.1988 38.0693 14.0297C34.4578 13.8607 30.8573 14.5454 27.56 16.0283C24.2627 17.5112 21.3615 19.7505 19.0916 22.5646C16.8218 25.3787 15.2473 28.6882 14.4959 32.2247C13.7446 35.7612 13.8375 39.425 14.7672 42.9189C15.6969 46.4127 17.4371 49.6382 19.8467 52.3336C22.2563 55.0289 25.2674 57.1183 28.6356 58.4322C28.8582 58.518 29.0947 58.5622 29.3333 58.5625C29.7806 58.5632 30.214 58.4074 30.5585 58.1222C30.903 57.837 31.137 57.4402 31.2198 57.0007C31.3026 56.5612 31.2291 56.1065 31.012 55.7155C30.7948 55.3244 30.4478 55.0216 30.0309 54.8595C27.1713 53.7537 24.6187 51.9781 22.5873 49.6816C20.556 47.3852 19.1052 44.6349 18.3567 41.6617C17.6083 38.6885 17.584 35.5791 18.2859 32.5946C18.9879 29.6101 20.3956 26.8375 22.3908 24.5096C24.3861 22.1817 26.9107 20.3664 29.7527 19.2161C32.5947 18.0659 35.6712 17.6142 38.7239 17.899C41.7766 18.1837 44.7164 19.1967 47.2966 20.8528C49.8768 22.5089 52.0221 24.7599 53.5523 27.4167H48.4999C47.9916 27.4167 47.5041 27.6186 47.1447 27.978C46.7852 28.3375 46.5833 28.825 46.5833 29.3333C46.5833 29.8417 46.7852 30.3292 47.1447 30.6886C47.5041 31.0481 47.9916 31.25 48.4999 31.25H54.2499C55.7749 31.25 57.2375 30.6442 58.3158 29.5659C59.3941 28.4875 59.9999 27.025 59.9999 25.5V19.75C59.9999 19.2417 59.798 18.7541 59.4386 18.3947C59.0791 18.0353 58.5916 17.8333 58.0833 17.8333Z" fill="#091970"/>
<path d="M41.9833 54.825L38.9827 50.8254L38.9748 50.8314L41.9833 54.825ZM40.2774 56.1667L36.9938 52.396L26.9224 61.1667H40.2774V56.1667ZM39.6833 51.7583L36.685 47.757L36.6827 47.7588L39.6833 51.7583ZM35.0833 48.5H30.0833H35.0833ZM46.5833 48.5H51.5833H46.5833ZM56.1666 50.4167V55.4167H61.1666V50.4167H56.1666ZM48.4999 48.5H43.4999H48.4999ZM54.2499 54.25V59.25V54.25ZM56.1666 54.25H61.1666V49.25H56.1666V54.25ZM35.0833 35.0833V40.0833H40.0833V35.0833H35.0833ZM58.0833 17.8333V12.8333V17.8333ZM56.1666 24.3002L51.9986 27.062L61.1666 40.8979V24.3002H56.1666ZM28.6356 58.4322L26.8186 63.0903L26.8274 63.0938L26.8363 63.0972L28.6356 58.4322ZM29.3333 58.5625L29.341 53.5625L29.3395 53.5625L29.3333 58.5625ZM30.0309 54.8595L31.8432 50.1995L31.8342 50.196L30.0309 54.8595ZM53.5523 27.4167V32.4167H62.2022L57.885 24.9212L53.5523 27.4167ZM59.9999 25.5H64.9999H59.9999ZM41.9833 54.825L38.9748 50.8314C38.4523 51.225 37.677 51.801 36.9938 52.396L40.2774 56.1667L43.5611 59.9373C43.9167 59.6276 44.3643 59.2913 44.9918 58.8186L41.9833 54.825ZM40.2774 56.1667V61.1667H44.6666V56.1667V51.1667H40.2774V56.1667ZM44.6666 56.1667V61.1667C43.8489 61.1667 43.0646 60.8418 42.4864 60.2636L46.0219 56.728L49.5574 53.1925C48.2603 51.8954 46.501 51.1667 44.6666 51.1667V56.1667ZM46.0219 56.728L42.4864 60.2636C41.9081 59.6853 41.5833 58.901 41.5833 58.0833H46.5833H51.5833C51.5833 56.2489 50.8546 54.4897 49.5574 53.1925L46.0219 56.728ZM46.5833 58.0833H41.5833C41.5833 57.2656 41.9081 56.4813 42.4864 55.9031L46.0219 59.4386L49.5574 62.9741C50.8546 61.677 51.5833 59.9177 51.5833 58.0833H46.5833ZM46.0219 59.4386L42.4864 55.9031C43.0646 55.3248 43.8489 55 44.6666 55V60V65C46.501 65 48.2603 64.2713 49.5574 62.9741L46.0219 59.4386ZM44.6666 60V55H36.9999V60V65H44.6666V60ZM36.9999 60V55C37.8177 55 38.6019 55.3248 39.1802 55.9031L35.6447 59.4386L32.1091 62.9741C33.4063 64.2713 35.1656 65 36.9999 65V60ZM35.6447 59.4386L39.1802 55.9031C39.7584 56.4813 40.0833 57.2656 40.0833 58.0833H35.0833H30.0833C30.0833 59.9177 30.812 61.677 32.1091 62.9741L35.6447 59.4386ZM35.0833 58.0833H40.0833C40.0833 58.0818 40.0831 58.093 40.0795 58.1095C40.0761 58.125 40.0737 58.1273 40.0804 58.1118C40.0962 58.0758 40.1613 57.9461 40.3591 57.7171C40.8243 57.1783 41.5168 56.6335 42.6838 55.7579L39.6833 51.7583L36.6827 47.7588C35.6935 48.5008 34.086 49.681 32.7903 51.1815C31.4047 52.7862 30.0833 55.0787 30.0833 58.0833H35.0833ZM39.6833 51.7583L42.6816 55.7596C43.3366 55.2687 44.3626 54.5081 45.2076 53.7018C45.6367 53.2923 46.1828 52.72 46.6497 52.0104C47.0854 51.3484 47.7499 50.1208 47.7499 48.5H42.7499H37.7499C37.7499 47.9093 37.8752 47.4387 37.9911 47.1272C38.1054 46.82 38.2306 46.613 38.2961 46.5134C38.4127 46.3363 38.4616 46.3167 38.3038 46.4673C38.1661 46.5988 37.9597 46.7762 37.6644 47.0101C37.3707 47.2427 37.053 47.4813 36.685 47.757L39.6833 51.7583ZM42.7499 48.5H47.7499C47.7499 46.6656 47.0212 44.9063 45.7241 43.6092L42.1886 47.1447L38.653 50.6802C38.0748 50.102 37.7499 49.3177 37.7499 48.5H42.7499ZM42.1886 47.1447L45.7241 43.6092C44.427 42.312 42.6677 41.5833 40.8333 41.5833V46.5833V51.5833C40.0155 51.5833 39.2313 51.2585 38.653 50.6802L42.1886 47.1447ZM40.8333 46.5833V41.5833C38.9989 41.5833 37.2396 42.312 35.9425 43.6092L39.478 47.1447L43.0135 50.6802C42.4353 51.2585 41.651 51.5833 40.8333 51.5833V46.5833ZM39.478 47.1447L35.9425 43.6092C34.6453 44.9063 33.9166 46.6656 33.9166 48.5H38.9166H43.9166C43.9166 49.3177 43.5918 50.102 43.0135 50.6802L39.478 47.1447ZM38.9166 48.5H33.9166C33.9166 47.6822 34.2415 46.898 34.8197 46.3197L38.3552 49.8553L41.8908 53.3908C43.1879 52.0937 43.9166 50.3344 43.9166 48.5H38.9166ZM38.3552 49.8553L34.8197 46.3197C35.3979 45.7415 36.1822 45.4167 36.9999 45.4167V50.4167V55.4167C38.8344 55.4167 40.5936 54.6879 41.8908 53.3908L38.3552 49.8553ZM36.9999 50.4167V45.4167C37.8177 45.4167 38.602 45.7415 39.1802 46.3197L35.6447 49.8553L32.1091 53.3908C33.4063 54.6879 35.1655 55.4167 36.9999 55.4167V50.4167ZM35.6447 49.8553L39.1802 46.3197C39.7584 46.898 40.0833 47.6822 40.0833 48.5H35.0833H30.0833C30.0833 50.3344 30.812 52.0937 32.1091 53.3908L35.6447 49.8553ZM35.0833 48.5H40.0833C40.0833 48.3011 40.1623 48.1103 40.3029 47.9697L36.7674 44.4341L33.2319 40.8986C31.2159 42.9146 30.0833 45.6489 30.0833 48.5H35.0833ZM36.7674 44.4341L40.3029 47.9697C40.4436 47.829 40.6344 47.75 40.8333 47.75V42.75V37.75C37.9822 37.75 35.2479 38.8826 33.2319 40.8986L36.7674 44.4341ZM40.8333 42.75V47.75C41.0322 47.75 41.223 47.829 41.3636 47.9697L44.8991 44.4341L48.4347 40.8986C46.4187 38.8826 43.6844 37.75 40.8333 37.75V42.75ZM44.8991 44.4341L41.3636 47.9697C41.5043 48.1103 41.5833 48.3011 41.5833 48.5H46.5833H51.5833C51.5833 45.6489 50.4507 42.9146 48.4347 40.8986L44.8991 44.4341ZM46.5833 48.5H41.5833C41.5833 48.5016 41.5835 48.4903 41.5871 48.4738C41.5904 48.4583 41.5929 48.4561 41.5861 48.4715C41.5704 48.5075 41.5052 48.6372 41.3075 48.8662C40.8422 49.405 40.1498 49.9498 38.9827 50.8254L41.9833 54.825L44.9838 58.8246C45.973 58.0825 47.5806 56.9023 48.8763 55.4018C50.2619 53.7971 51.5833 51.5046 51.5833 48.5H46.5833ZM58.0833 42.75V37.75C56.2489 37.75 54.4896 38.4787 53.1925 39.7758L56.728 43.3114L60.2635 46.8469C59.6853 47.4251 58.901 47.75 58.0833 47.75V42.75ZM56.728 43.3114L53.1925 39.7758C51.8953 41.073 51.1666 42.8323 51.1666 44.6667H56.1666H61.1666C61.1666 45.4844 60.8418 46.2686 60.2635 46.8469L56.728 43.3114ZM56.1666 44.6667H51.1666V50.4167H56.1666H61.1666V44.6667H56.1666ZM56.1666 50.4167V45.4167H54.2499V50.4167V55.4167H56.1666V50.4167ZM54.2499 50.4167V45.4167C55.0677 45.4167 55.852 45.7415 56.4302 46.3197L52.8947 49.8553L49.3591 53.3908C50.6563 54.6879 52.4155 55.4167 54.2499 55.4167V50.4167ZM52.8947 49.8553L56.4302 46.3197C57.0084 46.898 57.3333 47.6822 57.3333 48.5H52.3333H47.3333C47.3333 50.3344 48.062 52.0937 49.3591 53.3908L52.8947 49.8553ZM52.3333 48.5H57.3333V44.6667H52.3333H47.3333V48.5H52.3333ZM52.3333 44.6667H57.3333C57.3333 42.8323 56.6046 41.073 55.3074 39.7758L51.7719 43.3114L48.2364 46.8469C47.6581 46.2686 47.3333 45.4844 47.3333 44.6667H52.3333ZM51.7719 43.3114L55.3074 39.7758C54.0103 38.4787 52.251 37.75 50.4166 37.75V42.75V47.75C49.5989 47.75 48.8146 47.4251 48.2364 46.8469L51.7719 43.3114ZM50.4166 42.75V37.75C48.5822 37.75 46.8229 38.4787 45.5258 39.7758L49.0613 43.3114L52.5969 46.8469C52.0186 47.4251 51.2344 47.75 50.4166 47.75V42.75ZM49.0613 43.3114L45.5258 39.7758C44.2287 41.073 43.4999 42.8322 43.4999 44.6667H48.4999H53.4999C53.4999 45.4844 53.1751 46.2687 52.5969 46.8469L49.0613 43.3114ZM48.4999 44.6667H43.4999V48.5H48.4999H53.4999V44.6667H48.4999ZM48.4999 48.5H43.4999C43.4999 51.3511 44.6325 54.0854 46.6485 56.1014L50.1841 52.5659L53.7196 49.0303C53.579 48.8897 53.4999 48.6989 53.4999 48.5H48.4999ZM50.1841 52.5659L46.6485 56.1014C48.6646 58.1174 51.3989 59.25 54.2499 59.25V54.25V49.25C54.051 49.25 53.8603 49.171 53.7196 49.0303L50.1841 52.5659ZM54.2499 54.25V59.25H56.1666V54.25V49.25H54.2499V54.25ZM56.1666 54.25H51.1666V58.0833H56.1666H61.1666V54.25H56.1666ZM56.1666 58.0833H51.1666C51.1666 59.9177 51.8953 61.677 53.1925 62.9741L56.728 59.4386L60.2635 55.9031C60.8418 56.4813 61.1666 57.2656 61.1666 58.0833H56.1666ZM56.728 59.4386L53.1925 62.9741C54.4896 64.2713 56.2489 65 58.0833 65V60V55C58.901 55 59.6853 55.3248 60.2635 55.9031L56.728 59.4386ZM58.0833 60V65C59.9177 65 61.677 64.2713 62.9741 62.9741L59.4386 59.4386L55.903 55.9031C56.4813 55.3248 57.2656 55 58.0833 55V60ZM59.4386 59.4386L62.9741 62.9741C64.2712 61.677 64.9999 59.9177 64.9999 58.0833H59.9999H54.9999C54.9999 57.2656 55.3248 56.4813 55.903 55.9031L59.4386 59.4386ZM59.9999 58.0833H64.9999V44.6667H59.9999H54.9999V58.0833H59.9999ZM59.9999 44.6667H64.9999C64.9999 42.8322 64.2712 41.073 62.9741 39.7758L59.4386 43.3114L55.903 46.8469C55.3248 46.2687 54.9999 45.4844 54.9999 44.6667H59.9999ZM59.4386 43.3114L62.9741 39.7758C61.677 38.4787 59.9177 37.75 58.0833 37.75V42.75V47.75C57.2655 47.75 56.4813 47.4251 55.903 46.8469L59.4386 43.3114ZM38.9166 37H43.9166V27.4167H38.9166H33.9166V37H38.9166ZM38.9166 27.4167H43.9166C43.9166 25.5822 43.1879 23.823 41.8908 22.5258L38.3552 26.0614L34.8197 29.5969C34.2415 29.0187 33.9166 28.2344 33.9166 27.4167H38.9166ZM38.3552 26.0614L41.8908 22.5258C40.5936 21.2287 38.8344 20.5 36.9999 20.5V25.5V30.5C36.1822 30.5 35.3979 30.1751 34.8197 29.5969L38.3552 26.0614ZM36.9999 25.5V20.5C35.1655 20.5 33.4062 21.2287 32.1091 22.5258L35.6447 26.0614L39.1802 29.5969C38.602 30.1751 37.8177 30.5 36.9999 30.5V25.5ZM35.6447 26.0614L32.1091 22.5258C30.812 23.823 30.0833 25.5822 30.0833 27.4167H35.0833H40.0833C40.0833 28.2344 39.7584 29.0187 39.1802 29.5969L35.6447 26.0614ZM35.0833 27.4167H30.0833V35.0833H35.0833H40.0833V27.4167H35.0833ZM35.0833 35.0833V30.0833H29.3333V35.0833V40.0833H35.0833V35.0833ZM29.3333 35.0833V30.0833C27.4989 30.0833 25.7396 30.812 24.4425 32.1092L27.978 35.6447L31.5135 39.1802C30.9353 39.7585 30.151 40.0833 29.3333 40.0833V35.0833ZM27.978 35.6447L24.4425 32.1092C23.1453 33.4063 22.4166 35.1656 22.4166 37H27.4166H32.4166C32.4166 37.8177 32.0918 38.602 31.5135 39.1802L27.978 35.6447ZM27.4166 37H22.4166C22.4166 38.8344 23.1453 40.5937 24.4425 41.8908L27.978 38.3553L31.5135 34.8197C32.0918 35.398 32.4166 36.1822 32.4166 37H27.4166ZM27.978 38.3553L24.4425 41.8908C25.7396 43.1879 27.4989 43.9167 29.3333 43.9167V38.9167V33.9167C30.151 33.9167 30.9353 34.2415 31.5135 34.8197L27.978 38.3553ZM29.3333 38.9167V43.9167H36.9999V38.9167V33.9167H29.3333V38.9167ZM36.9999 38.9167V43.9167C38.8344 43.9167 40.5936 43.1879 41.8908 41.8908L38.3552 38.3553L34.8197 34.8197C35.3979 34.2415 36.1822 33.9167 36.9999 33.9167V38.9167ZM38.3552 38.3553L41.8908 41.8908C43.1879 40.5937 43.9166 38.8344 43.9166 37H38.9166H33.9166C33.9166 36.1822 34.2415 35.398 34.8197 34.8197L38.3552 38.3553ZM58.0833 17.8333V12.8333C56.2489 12.8333 54.4896 13.562 53.1925 14.8592L56.728 18.3947L60.2635 21.9302C59.6853 22.5085 58.901 22.8333 58.0833 22.8333V17.8333ZM56.728 18.3947L53.1925 14.8592C51.8953 16.1563 51.1666 17.9156 51.1666 19.75H56.1666H61.1666C61.1666 20.5677 60.8418 21.352 60.2635 21.9302L56.728 18.3947ZM56.1666 19.75H51.1666V24.3002H56.1666H61.1666V19.75H56.1666ZM56.1666 24.3002L60.3346 21.5383C57.9035 17.8693 54.6416 14.8251 50.8137 12.6528L48.3458 17.0013L45.878 21.3498C48.3388 22.7464 50.4357 24.7033 51.9986 27.062L56.1666 24.3002ZM48.3458 17.0013L50.8137 12.6528C46.9858 10.4804 42.6996 9.24102 38.3031 9.03521L38.0693 14.0297L37.8355 19.0243C40.6618 19.1566 43.4172 19.9533 45.878 21.3498L48.3458 17.0013ZM38.0693 14.0297L38.3031 9.03521C33.9065 8.8294 29.5233 9.66295 25.5092 11.4682L27.56 16.0283L29.6109 20.5884C32.1914 19.4278 35.0091 18.892 37.8355 19.0243L38.0693 14.0297ZM27.56 16.0283L25.5092 11.4682C21.4951 13.2735 17.9631 15.9997 15.1998 19.4255L19.0916 22.5646L22.9834 25.7037C24.7598 23.5014 27.0304 21.7489 29.6109 20.5884L27.56 16.0283ZM19.0916 22.5646L15.1998 19.4255C12.4365 22.8513 10.5198 26.8803 9.60509 31.1856L14.4959 32.2247L19.3868 33.2638C19.9748 30.4961 21.207 27.9061 22.9834 25.7037L19.0916 22.5646ZM14.4959 32.2247L9.60509 31.1856C8.6904 35.4909 8.80354 39.9512 9.93532 44.2046L14.7672 42.9189L19.5991 41.6331C18.8715 38.8988 18.7987 36.0315 19.3868 33.2638L14.4959 32.2247ZM14.7672 42.9189L9.93532 44.2046C11.0671 48.4579 13.1856 52.3846 16.1191 55.6659L19.8467 52.3336L23.5743 49.0012C21.6886 46.8917 20.3266 44.3675 19.5991 41.6331L14.7672 42.9189ZM19.8467 52.3336L16.1191 55.6659C19.0525 58.9473 22.7181 61.4909 26.8186 63.0903L28.6356 58.4322L30.4526 53.774C27.8166 52.7458 25.4601 51.1106 23.5743 49.0012L19.8467 52.3336ZM28.6356 58.4322L26.8363 63.0972C27.631 63.4037 28.4753 63.5614 29.3271 63.5625L29.3333 58.5625L29.3395 53.5625C29.7141 53.563 30.0854 53.6323 30.4349 53.7671L28.6356 58.4322ZM29.3333 58.5625L29.3256 63.5625C30.9396 63.565 32.5037 63.0029 33.747 61.9736L30.5585 58.1222L27.37 54.2708C27.9242 53.8119 28.6215 53.5614 29.341 53.5625L29.3333 58.5625ZM30.5585 58.1222L33.747 61.9736C34.9903 60.9443 35.8345 59.5126 36.1333 57.9264L31.2198 57.0007L26.3062 56.075C26.4394 55.3679 26.8158 54.7296 27.37 54.2708L30.5585 58.1222ZM31.2198 57.0007L36.1333 57.9264C36.4322 56.3403 36.1669 54.6995 35.3834 53.2884L31.012 55.7155L26.6405 58.1425C26.2913 57.5135 26.173 56.782 26.3062 56.075L31.2198 57.0007ZM31.012 55.7155L35.3834 53.2884C34.5999 51.8772 33.3475 50.7845 31.8432 50.1995L30.0309 54.8595L28.2187 59.5195C27.5481 59.2587 26.9898 58.7716 26.6405 58.1425L31.012 55.7155ZM30.0309 54.8595L31.8342 50.196C29.7206 49.3787 27.8339 48.0663 26.3324 46.3689L22.5873 49.6816L18.8423 52.9944C21.4035 55.8899 24.6221 58.1288 28.2277 59.523L30.0309 54.8595ZM22.5873 49.6816L26.3324 46.3689C24.831 44.6715 23.7587 42.6387 23.2055 40.4411L18.3567 41.6617L13.508 42.8823C14.4517 46.6311 16.281 50.0988 18.8423 52.9944L22.5873 49.6816ZM18.3567 41.6617L23.2055 40.4411C22.6523 38.2435 22.6343 35.9453 23.1531 33.7393L18.2859 32.5946L13.4188 31.4499C12.5337 35.213 12.5643 39.1335 13.508 42.8823L18.3567 41.6617ZM18.2859 32.5946L23.1531 33.7393C23.672 31.5334 24.7124 29.4841 26.1872 27.7635L22.3908 24.5096L18.5945 21.2557C16.0787 24.1909 14.3038 27.6868 13.4188 31.4499L18.2859 32.5946ZM22.3908 24.5096L26.1872 27.7635C27.6619 26.0428 29.5279 24.7011 31.6285 23.8509L29.7527 19.2161L27.8768 14.5814C24.2934 16.0317 21.1102 18.3205 18.5945 21.2557L22.3908 24.5096ZM29.7527 19.2161L31.6285 23.8509C33.7292 23.0007 36.0031 22.6669 38.2594 22.8773L38.7239 17.899L39.1883 12.9206C35.3392 12.5615 31.4602 13.131 27.8768 14.5814L29.7527 19.2161ZM38.7239 17.899L38.2594 22.8773C40.5158 23.0878 42.6887 23.8366 44.5958 25.0606L47.2966 20.8528L49.9974 16.645C46.7441 14.5569 43.0374 13.2797 39.1883 12.9206L38.7239 17.899ZM47.2966 20.8528L44.5958 25.0606C46.5029 26.2847 48.0885 27.9485 49.2196 29.9122L53.5523 27.4167L57.885 24.9212C55.9556 21.5713 53.2507 18.7332 49.9974 16.645L47.2966 20.8528ZM53.5523 27.4167V22.4167H48.4999V27.4167V32.4167H53.5523V27.4167ZM48.4999 27.4167V22.4167C46.6655 22.4167 44.9063 23.1454 43.6091 24.4425L47.1447 27.978L50.6802 31.5136C50.102 32.0918 49.3177 32.4167 48.4999 32.4167V27.4167ZM47.1447 27.978L43.6091 24.4425C42.312 25.7396 41.5833 27.4989 41.5833 29.3333H46.5833H51.5833C51.5833 30.1511 51.2584 30.9353 50.6802 31.5136L47.1447 27.978ZM46.5833 29.3333H41.5833C41.5833 31.1677 42.312 32.927 43.6091 34.2241L47.1447 30.6886L50.6802 27.1531C51.2584 27.7313 51.5833 28.5156 51.5833 29.3333H46.5833ZM47.1447 30.6886L43.6091 34.2241C44.9063 35.5213 46.6655 36.25 48.4999 36.25V31.25V26.25C49.3177 26.25 50.102 26.5748 50.6802 27.1531L47.1447 30.6886ZM48.4999 31.25V36.25H54.2499V31.25V26.25H48.4999V31.25ZM54.2499 31.25V36.25C57.101 36.25 59.8353 35.1174 61.8513 33.1014L58.3158 29.5659L54.7803 26.0303C54.6396 26.171 54.4489 26.25 54.2499 26.25V31.25ZM58.3158 29.5659L61.8513 33.1014C63.8674 31.0854 64.9999 28.3511 64.9999 25.5H59.9999H54.9999C54.9999 25.6989 54.9209 25.8897 54.7803 26.0303L58.3158 29.5659ZM59.9999 25.5H64.9999V19.75H59.9999H54.9999V25.5H59.9999ZM59.9999 19.75H64.9999C64.9999 17.9156 64.2712 16.1563 62.9741 14.8592L59.4386 18.3947L55.903 21.9302C55.3248 21.352 54.9999 20.5677 54.9999 19.75H59.9999ZM59.4386 18.3947L62.9741 14.8592C61.677 13.562 59.9177 12.8333 58.0833 12.8333V17.8333V22.8333C57.2655 22.8333 56.4813 22.5085 55.903 21.9302L59.4386 18.3947Z" fill="url(#paint0_linear_94_3)" mask="url(#path-2-inside-1_94_3)"/>
</g>
<defs>
<linearGradient id="paint0_linear_94_3" x1="36.9969" y1="14.0046" x2="36.9969" y2="60" gradientUnits="userSpaceOnUse">
<stop stop-color="#0968E5"/>
<stop offset="1" stop-color="#091970"/>
</linearGradient>
<clipPath id="clip0_94_3">
<rect width="46" height="46" fill="white" transform="translate(14 14)"/>
</clipPath>
</defs>
</svg>
