<svg width="64" height="64" viewBox="0 0 64 64" fill="none" xmlns="http://www.w3.org/2000/svg">
<g clip-path="url(#clip0_24_8)">
<path d="M32 0C14.3281 0 0 14.3281 0 32C0 49.6717 14.3281 64 32 64C49.6717 64 64 49.6717 64 32C64 14.3281 49.6717 0 32 0ZM43.8828 32.3623L25.8827 43.1054C25.7539 43.1836 25.5898 43.1875 25.457 43.1092C25.3281 43.035 25.2461 42.8965 25.2461 42.7421V31.9989V21.2556C25.2461 21.1034 25.3281 20.9627 25.457 20.8884C25.5898 20.8123 25.7539 20.8161 25.8827 20.8923L43.8828 31.6375C44.0116 31.7108 44.0879 31.8523 44.0879 31.9988C44.0879 32.1484 44.0118 32.2871 43.8828 32.3623Z" fill="#1D2180"/>
</g>
<defs>
<clipPath id="clip0_24_8">
<rect width="64" height="64" fill="white"/>
</clipPath>
</defs>
</svg>
