<svg width="75" height="80" viewBox="0 0 75 80" fill="none" xmlns="http://www.w3.org/2000/svg">
<rect width="75" height="80" rx="10" fill="#DCE6F7"/>
<path fill-rule="evenodd" clip-rule="evenodd" d="M65.1666 65.5V71.1667H51V65.5H65.1666ZM48.1666 65.5V71.1667H42.5V65.5H48.1666ZM65.1666 57V62.6667H51V57H65.1666ZM48.1666 57V62.6667H42.5V57H48.1666ZM21.9792 46.3542C25.0556 49.4306 29.3056 51.3334 34 51.3334C35.987 51.3334 37.8943 50.9925 39.6668 50.366L39.6669 56.2859C37.8556 56.7521 35.9568 57 34 57C27.7407 57 22.074 54.4629 17.9721 50.361L21.9792 46.3542ZM65.1666 48.5V54.1667H51V48.5H65.1666ZM48.1666 48.5V54.1667H42.5V48.5H48.1666ZM34 11.6667C46.5184 11.6667 56.6666 21.8149 56.6666 34.3334C56.6666 38.462 55.5628 42.3328 53.6342 45.6668L46.6709 45.6671C49.363 42.6594 51 38.6875 51 34.3334C51 24.9445 43.3888 17.3334 34 17.3334C24.6111 17.3334 17 24.9445 17 34.3334C17 34.868 17.0247 35.3969 17.0729 35.9189L19.8333 33.1597L23.8403 37.1667L14.1666 46.8403L4.49304 37.1667L8.49998 33.1597L11.3978 36.0566C11.3551 35.4878 11.3333 34.9131 11.3333 34.3334C11.3333 21.8149 21.4815 11.6667 34 11.6667ZM36.8333 20.1667V32.8034L44.0583 37.6484L40.9416 42.3517L31.1666 35.8634V20.1667H36.8333Z" fill="url(#paint0_linear_94_2)"/>
<defs>
<linearGradient id="paint0_linear_94_2" x1="34.8298" y1="11.6667" x2="34.8298" y2="71.1667" gradientUnits="userSpaceOnUse">
<stop stop-color="#0968E5"/>
<stop offset="1" stop-color="#091970"/>
</linearGradient>
</defs>
</svg>
